<svg xmlns="http://www.w3.org/2000/svg" width="1200" height="630" viewBox="0 0 1200 630" role="img" aria-label="Meet Map social preview">
  <defs>
    <linearGradient id="bg" x1="0" y1="0" x2="1" y2="1">
      <stop offset="0%" stop-color="#0A0A0A" />
      <stop offset="100%" stop-color="#1A1A1A" />
    </linearGradient>
    <filter id="soft" x="-20%" y="-20%" width="140%" height="140%">
      <feDropShadow dx="0" dy="8" stdDeviation="14" flood-color="#000000" flood-opacity="0.45"/>
    </filter>
  </defs>

  <rect x="0" y="0" width="1200" height="630" fill="url(#bg)" />

  <circle cx="250" cy="315" r="170" fill="#11161f" />
  <path d="M250 165c-71 0-128 57-128 128 0 49 29 88 64 121 29 27 48 51 54 58 5 5 13 5 18 0 6-7 25-31 54-58 35-33 64-72 64-121 0-71-57-128-126-128z" fill="#FF6B35" filter="url(#soft)"/>
  <g fill="#B63F12">
    <rect x="198" y="275" width="104" height="44" rx="11"/>
    <path d="M208 275l13-24h58l18 24z"/>
    <circle cx="224" cy="319" r="11" fill="#FF6B35"/>
    <circle cx="286" cy="319" r="11" fill="#FF6B35"/>
  </g>

  <circle cx="337" cy="226" r="10" fill="#00D4FF"/>

  <text x="455" y="295" fill="#FF6B35" font-size="96" font-family="Arial, Helvetica, sans-serif" font-weight="700" letter-spacing="2">
    MEET MAP
  </text>
  <text x="455" y="362" fill="#EAEAEA" font-size="44" font-family="Arial, Helvetica, sans-serif">
    Local Car Events
  </text>
  <text x="455" y="422" fill="#9AA1AC" font-size="26" font-family="Arial, Helvetica, sans-serif">
    Find and post local meets, shows, and track days near you.
  </text>
</svg>
